<?xml version="1.0" standalone="no"?>
<!DOCTYPE svg PUBLIC "-//W3C//DTD SVG 20010904//EN"
 "http://www.w3.org/TR/2001/REC-SVG-20010904/DTD/svg10.dtd">
<svg version="1.0" xmlns="http://www.w3.org/2000/svg"
 width="1080.000000pt" height="305.000000pt" viewBox="0 0 1080.000000 305.000000"
 preserveAspectRatio="xMidYMid meet">

<g transform="translate(0.000000,305.000000) scale(0.100000,-0.100000)"
fill="#000000" stroke="none">
<path d="M4909 2937 c-170 -48 -354 -261 -524 -612 -78 -161 -177 -396 -261
-620 -39 -105 -75 -157 -184 -264 -157 -153 -372 -270 -496 -271 -80 0 -98 96
-40 217 57 119 221 276 317 303 53 15 59 -4 16 -48 -42 -43 -49 -88 -19 -115
56 -51 182 32 212 138 16 57 8 86 -36 135 -56 62 -119 73 -225 40 -129 -40
-278 -166 -382 -322 -110 -165 -358 -366 -421 -342 -24 9 -31 51 -19 109 16
71 95 253 164 372 64 112 74 157 40 187 -11 10 -36 18 -57 19 -53 2 -90 -46
-180 -228 -165 -336 -186 -513 -71 -586 70 -44 202 -2 358 115 41 31 77 56 80
56 4 0 9 -18 13 -41 9 -58 85 -133 148 -146 141 -30 382 65 581 230 26 22 50
37 53 34 3 -2 -5 -42 -16 -88 -25 -95 -21 -139 15 -175 59 -59 152 -11 162 85
5 43 22 75 84 158 154 203 400 419 468 411 43 -5 48 -31 15 -84 -37 -60 -141
-141 -259 -200 -49 -25 -93 -51 -97 -57 -16 -25 -7 -84 21 -142 36 -76 112
-149 172 -165 108 -30 250 17 379 125 l65 54 17 -51 c21 -67 45 -98 99 -128
110 -61 375 2 564 134 35 24 66 42 69 38 3 -3 6 -21 6 -39 0 -19 9 -51 20 -73
78 -153 284 -113 532 104 42 36 78 66 80 66 2 0 4 -30 4 -66 3 -119 50 -240
107 -274 67 -41 188 -15 203 44 8 33 0 44 -41 52 -18 3 -41 14 -49 23 -65 72
-74 340 -16 464 11 23 63 92 117 152 294 335 504 656 582 890 33 96 40 228 15
280 -56 118 -222 95 -368 -50 -111 -111 -195 -255 -301 -515 -57 -140 -152
-431 -147 -452 3 -13 -12 -9 -59 14 -32 16 -63 22 -114 22 -60 1 -80 -4 -137
-32 -82 -40 -209 -156 -286 -262 -119 -162 -307 -320 -439 -370 -160 -60 -254
-50 -281 30 -15 41 8 67 76 86 81 23 189 74 263 125 219 148 287 340 146 408
-50 24 -92 26 -163 7 -136 -36 -264 -142 -421 -346 -97 -128 -243 -268 -314
-304 -59 -29 -113 -33 -162 -12 -35 14 -97 78 -97 100 0 8 33 32 73 54 145 80
263 186 307 277 29 61 30 143 2 183 -83 116 -291 33 -560 -223 -51 -48 -94
-86 -96 -84 -2 2 12 38 31 79 31 66 44 83 120 145 109 90 332 310 404 400 174
216 314 492 334 657 14 125 -73 199 -196 165z m52 -153 c38 -46 -140 -377
-332 -614 -80 -98 -235 -257 -243 -249 -7 7 85 224 158 371 106 215 245 416
330 479 45 33 68 36 87 13z m2197 -71 c9 -88 -159 -429 -325 -660 -75 -106
-174 -226 -180 -219 -7 6 62 222 114 356 82 214 201 424 293 519 32 32 47 41
68 39 22 -2 28 -9 30 -35z m-1614 -1009 c64 -25 -80 -166 -249 -245 -36 -17
-70 -29 -76 -27 -16 5 91 129 164 190 34 28 80 59 102 69 47 22 40 20 59 13z
m786 -24 c10 -5 21 -21 24 -34 3 -14 16 -34 27 -45 20 -18 20 -20 4 -52 -36
-71 -171 -220 -270 -299 -101 -80 -150 -97 -187 -63 -58 53 42 256 198 402 91
86 158 116 204 91z"/>
<path d="M8435 2891 c-297 -77 -663 -290 -895 -523 -87 -87 -154 -179 -203
-277 -40 -80 -42 -88 -42 -177 0 -86 2 -95 30 -135 19 -27 51 -54 85 -72 61
-32 27 -31 452 -11 82 4 145 2 175 -5 55 -13 143 -51 143 -62 0 -4 -48 -26
-107 -49 -585 -232 -1094 -677 -1187 -1036 -43 -168 10 -331 134 -409 84 -53
225 -72 340 -46 83 19 264 112 362 186 372 281 657 717 714 1095 7 52 14 118
14 147 l0 51 68 20 c105 32 202 55 208 49 3 -2 -6 -21 -20 -42 -68 -99 -106
-222 -106 -339 0 -85 16 -135 58 -179 51 -54 106 -70 190 -57 148 25 271 142
378 363 46 95 48 97 81 97 44 0 178 28 222 46 19 8 36 13 37 11 2 -2 -10 -41
-27 -88 -45 -124 -99 -316 -99 -354 0 -47 8 -64 41 -80 41 -22 82 -19 106 8
12 12 34 53 50 91 34 83 152 226 324 391 120 114 192 164 224 151 17 -6 17
-15 9 -119 -21 -265 -1 -388 73 -445 33 -24 45 -27 117 -27 72 0 89 4 150 34
46 23 94 58 143 106 64 64 73 77 73 109 0 30 -5 38 -25 46 -37 14 -66 -1 -143
-73 -104 -98 -168 -111 -201 -42 -18 36 -20 178 -7 376 8 124 7 139 -10 167
-40 68 -128 78 -225 26 -75 -41 -197 -144 -298 -250 -50 -53 -91 -93 -91 -89
0 3 25 81 55 171 62 185 69 243 33 268 -28 20 -71 20 -107 2 -27 -14 -70 -94
-86 -157 -5 -22 -22 -34 -84 -62 -43 -20 -108 -42 -146 -48 -66 -13 -68 -12
-86 10 -10 12 -21 45 -25 72 -12 91 -71 132 -189 132 -54 0 -88 -6 -150 -30
-44 -17 -132 -40 -195 -52 -63 -12 -175 -38 -247 -58 l-133 -36 -20 26 c-34
43 -138 106 -212 128 -82 25 -152 28 -428 15 -179 -8 -197 -7 -213 8 -66 67
15 238 195 411 263 254 685 485 884 485 54 0 75 -14 88 -57 22 -71 -150 -290
-315 -401 -101 -67 -123 -95 -116 -147 10 -70 76 -96 153 -59 44 21 243 228
327 340 151 201 178 312 100 405 -71 84 -202 100 -398 50z m640 -1240 c-7 -42
12 -93 40 -109 14 -7 13 -16 -7 -73 -31 -85 -119 -219 -175 -269 -26 -23 -61
-42 -81 -46 -31 -6 -39 -3 -64 25 -33 37 -35 69 -13 156 37 140 137 279 237
329 29 14 56 26 61 26 5 0 6 -18 2 -39z m-798 -235 c-10 -136 -66 -292 -162
-454 -163 -274 -452 -560 -679 -673 -154 -76 -290 -63 -354 34 -24 36 -27 51
-27 122 0 76 3 88 42 166 122 245 474 553 853 746 129 66 312 142 324 135 5
-3 6 -37 3 -76z"/>
<path d="M2552 2885 c-57 -48 -49 -127 19 -177 17 -13 43 -43 57 -68 26 -43
27 -51 26 -180 -2 -334 -137 -749 -348 -1068 -113 -172 -255 -295 -321 -278
-49 12 -60 48 -60 186 0 180 42 351 166 688 67 181 63 243 -16 258 -47 8 -87
-18 -155 -103 -92 -114 -863 -875 -874 -862 -1 2 37 81 86 174 188 360 369
754 422 924 29 93 34 192 12 245 -22 53 -82 112 -139 136 -116 50 -351 1 -598
-126 -422 -216 -739 -549 -757 -794 -6 -82 9 -125 49 -145 80 -42 139 11 139
126 0 117 97 269 269 422 222 198 554 366 732 370 74 2 94 -8 116 -60 20 -48
16 -76 -22 -188 -59 -172 -188 -452 -413 -898 l-217 -428 0 -70 c0 -67 2 -72
33 -100 18 -16 40 -29 50 -29 45 0 146 91 553 500 l436 437 -19 -76 c-51 -213
-68 -513 -34 -606 43 -118 114 -172 212 -162 264 27 601 441 763 933 82 250
115 453 109 681 -3 137 -5 152 -31 208 -63 136 -171 193 -245 130z"/>
<path d="M3370 2520 c-95 -126 -111 -140 -159 -140 -31 0 -73 30 -208 147 -35
30 -63 52 -63 48 0 -3 36 -58 81 -121 94 -134 108 -178 68 -220 -13 -14 -75
-57 -137 -96 -62 -39 -111 -72 -110 -74 2 -1 62 15 133 37 72 21 142 39 157
39 14 0 40 -11 56 -25 26 -22 35 -44 68 -177 l39 -153 5 168 5 169 30 25 29
26 148 -7 c81 -4 148 -5 148 -3 0 3 -56 24 -124 47 -69 23 -136 50 -150 61
-42 33 -36 86 28 239 30 72 52 130 50 130 -2 0 -44 -54 -94 -120z"/>
</g>
</svg>
